<svg id="Capa_1" enable-background="new 0 0 512 512" height="512" viewBox="0 0 512 512" width="512" xmlns="http://www.w3.org/2000/svg" xmlns:xlink="http://www.w3.org/1999/xlink"><linearGradient id="SVGID_1_" gradientUnits="userSpaceOnUse" x1="256" x2="256" y1="512" y2="0"><stop offset="0" stop-color="#fd3a84"/><stop offset="1" stop-color="#ffa68d"/></linearGradient><g><g><path d="m76 90c8.284 0 15-6.716 15-15v-45h45c8.284 0 15-6.716 15-15s-6.716-15-15-15h-60c-8.284 0-15 6.716-15 15v60c0 8.284 6.716 15 15 15zm60 392h-45v-45c0-8.284-6.716-15-15-15s-15 6.716-15 15v60c0 8.284 6.716 15 15 15h60c8.284 0 15-6.716 15-15s-6.716-15-15-15zm240-452h45v45c0 8.284 6.716 15 15 15s15-6.716 15-15v-60c0-8.284-6.716-15-15-15h-60c-8.284 0-15 6.716-15 15s6.716 15 15 15zm60 392c-8.284 0-15 6.716-15 15v45h-45c-8.284 0-15 6.716-15 15s6.716 15 15 15h60c8.284 0 15-6.716 15-15v-60c0-8.284-6.716-15-15-15zm61-272h-136.842c-6.457-56.434-49.977-90-104.158-90-54.102 0-97.692 33.489-104.158 90h-136.842c-8.284 0-15 6.716-15 15s6.716 15 15 15h136.8c4.248 41.017 25.806 84.904 59.2 107.222v14.778h-15c-41.355 0-75 33.645-75 75v30c0 8.284 6.716 15 15 15h240c8.284 0 15-6.716 15-15v-30c0-41.355-33.645-75-75-75h-15v-14.778c33.447-22.353 54.959-66.275 59.2-107.222h136.8c8.284 0 15-6.716 15-15s-6.716-15-15-15zm-241-60c40.338 0 68.021 23.089 73.842 60h-147.684c5.821-36.911 33.504-60 73.842-60zm22.994 175.471c-4.917 2.597-7.994 7.702-7.994 13.264v38.265c0 8.284 6.716 15 15 15h30c24.813 0 45 20.187 45 45v15h-210v-15c0-24.813 20.187-45 45-45h30c8.284 0 15-6.716 15-15v-38.265c0-5.562-3.077-10.667-7.994-13.264-25.62-13.532-46.357-49.238-51.018-85.481h148.025c-4.661 36.243-25.399 71.949-51.019 85.481z" fill="url(#SVGID_1_)"/></g></g></svg>